# xmcd
#
# Track frame offsets:
#	150
#	8830
#	16835
#	26520
#	36461
#	47720
#	57398
#	66215
#	75660
#	83635
#	95159
#	107534
#	115803
#	125141
#	133391
#	155943
#	174884
#	188746
#	210373
#	230173
#	243393
#	261193
#	280099
#	288829
#	297538
#	314719
#
# Disc length: 4324 seconds
#
# Revision: 1
# Processed by: cddbd v1.5.2PL0 Copyright (c) Steve Scherf et al.
# Submitted via: audiograbber 1.83.01
#
DISCID=8110e21a
DTITLE=Johnny Cash - The Real..Johnny Cash The Ultimate Johnny Cash Collection 
DTITLE=cd2
DYEAR=1900
DGENRE=
TTITLE0=DRINK TO ME
TTITLE1=FIVE FEET HIGH AND RISING
TTITLE2=THE MAN ON THE HILL
TTITLE3=HANK AND JOE AND ME
TTITLE4=CLEMENTINE
TTITLE5=GREAT SPECKLED BIRD
TTITLE6=I WANT TO GO HOME
TTITLE7=THE CARETAKER
TTITLE8=OLD APACHE SQUAW 
TTITLE9=DONT STEP ON MOTHERS ROSES
TTITLE10=MY GRANDFATHERS CLOCK
TTITLE11=IT COULD BE YOU (INSTEAD OF HIM)
TTITLE12=I GOT STRIPES
TTITLE13=YOU DREAMER YOU
TTITLE14=LOADING COAL
TTITLE15=SLOW RIDER
TTITLE16=LUMBERJACK
TTITLE17=DORRAINE OF PONCHARTRAIN
TTITLE18=GOING TO MEMPHIS
TTITLE19=WHEN PAPA PLAYED THE DOBRO
TTITLE20=BOSS JACK
TTITLE21=OLD DOC BROWN
TTITLE22=THE FABLE OF WILLIE BROWN
TTITLE23=SECOND HONEYMOON
TTITLE24=BALLAD OF THE HARP WEAVER
TTITLE25=SMILING BILL MC CALL
EXTD=
EXTT0=
EXTT1=
EXTT2=
EXTT3=
EXTT4=
EXTT5=
EXTT6=
EXTT7=
EXTT8=
EXTT9=
EXTT10=
EXTT11=
EXTT12=
EXTT13=
EXTT14=
EXTT15=
EXTT16=
EXTT17=
EXTT18=
EXTT19=
EXTT20=
EXTT21=
EXTT22=
EXTT23=
EXTT24=
EXTT25=
PLAYORDER=
